<svg xmlns="http://www.w3.org/2000/svg" xmlns:xlink="http://www.w3.org/1999/xlink" version="1.1" baseProfile="basic" x="0px" y="0px" viewBox="0 0 100 125" xml:space="preserve"><g><path fill="#000000" d="M82.503,20.416c-3.647-1.304-7.382-2.262-11.158-3.045c2.067-2.386,4.677-4.241,6.892-6.49   c0.754-0.765,0.506-2.391-0.685-2.592C72.363,7.41,67.169,7.88,61.942,7.924c-0.14,0.001-0.28,0.007-0.42,0.008   c0.184-1.691,0.064-3.32-0.878-4.668c-0.396-0.564-1.048-0.927-1.752-0.713c-4.271,1.298-8.502,2.74-12.658,4.361   c-0.775-0.663-1.576-1.298-2.43-1.878c-0.44-0.298-1.124-0.278-1.566,0c-4.307,2.707-8.237,5.862-12.351,8.837   c-4.313,3.12-8.781,6.016-13.083,9.153c-0.355,0.259-0.55,0.594-0.627,0.945c-0.45,0.224-0.779,0.661-0.76,1.324   c0.197,7.193,1.016,14.354,0.775,21.557c-0.042,1.254,1.249,1.746,2.25,1.365c1.647,2.552,2.766,5.406,4.312,8.022   c0.002,0.008,0.005,0.012,0.007,0.02c0.022,0.069,0.053,0.131,0.081,0.194c0.005,0.058,0.015,0.111,0.019,0.169   c0.043,0.526,0.297,0.909,0.639,1.157c-0.033,1.151,0.176,2.461,0.413,3.7c0.58,3.021-1.335,9.043,3.795,8.292   c0.37-0.054,0.576-0.268,0.646-0.527c0.656,3.259,1.785,6.352,3.142,9.424c1.829,4.138,4.604,8.082,5.965,12.399   c0.661,2.094,1.258,3.901,3.456,4.662c2.818,0.975,6.331,0.679,9.243,0.486c2.239-0.147,4.139-0.507,5.871-2.007   c2.239-1.939,3.39-5.137,4.466-7.805c1.35-3.342,2.696-6.529,4.422-9.705c1.544-2.843,2.815-5.665,3.334-8.752   c0.809,0.092,1.457-0.016,2.258-0.244c0.424-0.118,0.648-0.476,0.683-0.896c0.252-3.059,1.648-11.512-2.97-12.063   c1.02-5.26,4.059-9.979,6.524-14.72c0.41-0.401,0.709-0.949,0.835-1.65c2.731-5.527,5.988-10.798,7.571-16.811   C83.289,21.042,82.984,20.587,82.503,20.416z M69.771,61.468c-0.222-0.53-0.48-1.045-0.772-1.543   c-0.607-1.034-2.216-0.099-1.607,0.939c0.534,0.909,0.927,1.846,1.147,2.88c0.122,0.571,0.613,0.744,1.055,0.637   c-0.064,0.646-0.133,1.229-0.186,1.697c-0.308,0.06-0.624,0.06-0.943,0.027c0.025-0.383,0.041-0.768,0.04-1.161   c0-1.2-1.86-1.2-1.86,0c0.007,6.574-4.265,11.655-6.604,17.517c-1.882,4.712-3.343,11.22-9.225,11.837   c-2.411,0.255-4.868,0.229-7.28,0.021c-1.182-0.102-2.64-0.234-3.359-1.309c-0.737-1.1-0.804-2.542-1.367-3.721   c-3.439-7.195-7.942-14.218-8.972-22.276c-0.15-1.173-2.013-1.188-1.861,0c0.061,0.473,0.134,0.939,0.215,1.403   c-0.199-0.296-0.542-0.504-0.98-0.44c-1.114,0.163-1.426-0.963-1.466-2.278c0.152-0.107,0.275-0.272,0.336-0.507   c0.427-1.645,1.019-3.215,1.768-4.739c0.526-1.074-1.079-2.017-1.608-0.938c-0.206,0.418-0.402,0.841-0.588,1.268   c-0.172-0.775-0.368-1.635-0.424-2.399c0.967-0.139,1.794-1.074,1.222-2.088c0.217-0.021,0.467-0.014,0.76,0.035   c0.521,0.088,0.907-0.216,1.076-0.599c0.072-0.065,0.138-0.144,0.182-0.242c0.286-0.649,0.542-1.309,0.772-1.972   c0.099-0.145,0.182-0.312,0.231-0.516c0.054-0.221,0.099-0.44,0.15-0.661c0.686-2.275,1.099-4.618,1.393-6.983   c0.184-0.778,0.387-1.552,0.589-2.326c4.185-2.814,5.645-7.612,5.883-12.589c3.768-0.229,7.57,0.003,11.335,0.152   c2.92,0.115,5.779,0.158,8.688-0.122c2.099-0.201,8.554-1.519,8.948,1.895c0.18,1.549,0.182,3.164,0.132,4.786   c-0.01,0.271-0.021,0.542-0.028,0.813c-0.068,1.659-0.173,3.315-0.195,4.909c-0.058,4.186-0.13,8.371-0.137,12.557   c-0.001,0.433,0.3,0.73,0.657,0.854c0.148,0.177,0.377,0.296,0.687,0.283C69.384,56.507,69.797,58.921,69.771,61.468z"/><path fill="#000000" d="M47.104,40.854c-3.236-0.199-6.477-0.206-9.718-0.207c-1.2,0-1.2,1.861,0,1.861   c3.242,0,6.482,0.008,9.718,0.207C48.304,42.788,48.295,40.927,47.104,40.854z"/><path fill="#000000" d="M62.199,40.854H51.653c-1.2,0-1.2,1.861,0,1.861h10.546C63.399,42.714,63.399,40.854,62.199,40.854z"/><path fill="#000000" d="M46.938,49.505c0.483-0.186,0.782-0.615,0.65-1.144c-0.758-3.059-4.839-2.19-7.1-1.925   c-1.177,0.138-1.191,2.001,0,1.861c0.759-0.089,2.58-0.517,3.885-0.364c-0.163,0.381-0.088,0.833,0.4,1.064   C45.593,49.386,45.954,49.883,46.938,49.505z"/><path fill="#000000" d="M52.895,46.436c-1.2,0.017-1.201,1.877,0,1.861c0.668-0.009,3.396-0.389,5.177-0.267   c-0.202,0.473-0.068,1.096,0.571,1.268c0.756,0.203,1.394,0.203,2.148,0c0.51-0.136,0.759-0.651,0.651-1.144   C60.78,45.135,54.974,46.407,52.895,46.436z"/><path fill="#000000" d="M47.27,70.804c2.436,0.736,4.774,0.925,6.427-1.256c0.727-0.957-0.892-1.882-1.607-0.939   c-0.909,1.199-2.318,0.977-3.584,0.621c0.511-6.404,1.726-12.734,1.803-19.173c0.015-1.201-1.846-1.2-1.861,0   c-0.08,6.667-1.387,13.213-1.86,19.851C46.557,70.323,46.895,70.688,47.27,70.804z"/><path fill="#000000" d="M57.198,73.384c-2.64,2.999-8.375-0.323-11.748-0.273c-1.199,0.02-1.201,1.88,0,1.861   c3.101-0.045,7.134,2.024,10.353,1.324c-0.129,0.266-0.263,0.53-0.404,0.792c-0.574,1.054,1.033,1.993,1.606,0.938   c0.622-1.141,1.102-2.342,1.655-3.515C59.085,73.612,57.941,72.539,57.198,73.384z"/><path fill="#000000" d="M49.379,89.241c-0.986,0-1.969,0.016-2.936,0.24c-1.167,0.273-0.672,2.067,0.495,1.794   c0.801-0.188,1.623-0.173,2.44-0.173C50.58,91.103,50.58,89.241,49.379,89.241z"/></g><text x="0" y="115" fill="#000000" font-size="5px" font-weight="bold" font-family="'Helvetica Neue', Helvetica, Arial-Unicode, Arial, Sans-serif">Created by HCP18</text><text x="0" y="120" fill="#000000" font-size="5px" font-weight="bold" font-family="'Helvetica Neue', Helvetica, Arial-Unicode, Arial, Sans-serif">from the Noun Project</text></svg>