
      <svg data-logo="logo" xmlns="http://www.w3.org/2000/svg" viewBox="0 0 200 24">
        <g id="logogram" transform="translate(0, 12) rotate(0) "></g>
        <g id="logotype" transform="translate(0, 1)"><path fill="#fffafa" d="M13.13 22L4.38 22L4.38 0.12L21.88 0.12L21.88 4.50L26.25 4.50L26.25 8.87L21.88 8.87L21.88 13.25L13.13 13.25L13.13 22ZM13.13 4.50L13.13 8.87L17.33 8.87L17.33 4.50L13.13 4.50ZM40.25 22L31.50 22L31.50 0.12L49.00 0.12L49.00 4.50L53.38 4.50L53.38 8.87L49.00 8.87L49.00 17.63L53.38 17.63L53.38 22L44.63 22L44.63 17.63L40.25 17.63L40.25 22ZM40.25 4.50L40.25 8.87L44.63 8.87L44.63 4.50L40.25 4.50ZM76.13 22L58.63 22L58.63 0.12L76.13 0.12L76.13 4.50L67.38 4.50L67.38 8.87L76.13 8.87L76.13 13.25L67.38 13.25L67.38 17.63L76.13 17.63L76.13 22ZM90.13 22L81.38 22L81.38 0.12L98.88 0.12L98.88 4.50L103.25 4.50L103.25 8.87L98.88 8.87L98.88 13.25L90.13 13.25L90.13 22ZM90.13 4.50L90.13 8.87L94.33 8.87L94.33 4.50L90.13 4.50ZM126.00 22L112.88 22L112.88 17.63L108.50 17.63L108.50 4.50L112.88 4.50L112.88 0.12L130.38 0.12L130.38 4.50L117.25 4.50L117.25 17.63L121.63 17.63L121.63 8.87L130.38 8.87L130.38 17.63L126.00 17.63L126.00 22ZM144.38 22L135.63 22L135.63 0.12L153.13 0.12L153.13 4.50L157.50 4.50L157.50 8.87L153.13 8.87L153.13 17.63L157.50 17.63L157.50 22L148.75 22L148.75 17.63L144.38 17.63L144.38 22ZM144.38 4.50L144.38 8.87L148.75 8.87L148.75 4.50L144.38 4.50ZM171.50 22L162.75 22L162.75 0.12L171.50 0.12L171.50 22ZM194.25 22L176.75 22L176.75 0.12L194.25 0.12L194.25 4.50L198.63 4.50L198.63 17.63L194.25 17.63L194.25 22ZM185.50 4.50L185.50 17.63L189.70 17.63L189.70 4.50L185.50 4.50Z"/></g>
        
      </svg>
    