
      <svg data-logo="logo" xmlns="http://www.w3.org/2000/svg" viewBox="0 0 41 41">
        <g id="logogram" transform="translate(0, 0) rotate(0) "><path d="M18.6689 14.4367C19.8973 14.0862 20.0193 10.6888 18.9416 6.84841C17.8638 3.008 15.9944 0.178842 14.766 0.529316C13.5377 0.879791 13.4157 4.27717 14.4934 8.11762C15.5711 11.958 17.4406 14.7872 18.6689 14.4367Z" fill="white"/><path d="M26.2647 8.2371C27.4174 4.41885 27.3619 1.0197 26.1406 0.644874C24.9194 0.270041 22.9949 3.06147 21.8422 6.87971C20.6896 10.6979 20.7452 14.0971 21.9664 14.4719C23.1877 14.8467 25.1121 12.0553 26.2647 8.2371Z" fill="white"/><path d="M15.8716 16.2079C16.717 15.2434 14.998 12.3189 12.032 9.67583C9.06609 7.03274 5.97641 5.67196 5.13104 6.63645C4.28567 7.60095 6.00473 10.5255 8.97071 13.1686C11.9366 15.8117 15.0263 17.1724 15.8716 16.2079Z" fill="white"/><path d="M31.6922 13.3963C34.7089 10.8122 36.4843 7.9221 35.6577 6.94117C34.8312 5.96022 31.7158 7.25987 28.6992 9.84392C25.6825 12.4281 23.9072 15.3181 24.7337 16.2991C25.5602 17.2801 28.6756 15.9805 31.6922 13.3963Z" fill="white"/><path d="M14.467 19.2386C14.6613 17.9664 11.6472 16.4429 7.73505 15.8357C3.8228 15.2285 0.493906 15.7677 0.299713 17.0399C0.10552 18.3121 3.11956 19.8355 7.03178 20.4427C10.9439 21.0499 14.2729 20.5107 14.467 19.2386Z" fill="white"/><path d="M33.4868 20.6973C37.4102 20.168 40.4534 18.7048 40.2841 17.4289C40.1149 16.1532 36.7971 15.548 32.8738 16.0772C28.9505 16.6064 25.9072 18.0697 26.0765 19.3455C26.2458 20.6213 29.5635 21.2266 33.4868 20.6973Z" fill="white"/><path d="M9.29205 27.6032C12.9087 25.9812 15.42 23.7128 14.9011 22.5367C14.3823 21.3606 11.0299 21.7222 7.41325 23.3443C3.79662 24.9664 1.28535 27.2348 1.80417 28.4109C2.32298 29.587 5.67542 29.2254 9.29205 27.6032Z" fill="white"/><path d="M38.548 28.7755C39.0897 27.61 36.6233 25.2922 33.039 23.5985C29.4549 21.9047 26.1101 21.4766 25.5684 22.6421C25.0267 23.8077 27.4931 26.1255 31.0774 27.8193C34.6615 29.5129 38.0062 29.9411 38.548 28.7755Z" fill="white"/><path d="M15.0428 32.3899C17.2155 29.0536 18.1117 25.7763 17.0446 25.0698C15.9775 24.3633 13.3512 26.4951 11.1786 29.8314C9.00599 33.1677 8.1098 36.4449 9.17685 37.1515C10.244 37.858 12.8702 35.7262 15.0428 32.3899Z" fill="white"/><path d="M31.0087 37.3753C32.0894 36.6902 31.2574 33.3956 29.1505 30.0168C27.0436 26.638 24.4595 24.4544 23.3788 25.1395C22.2981 25.8246 23.1301 29.1192 25.237 32.498C27.3439 35.8768 29.928 38.0605 31.0087 37.3753Z" fill="white"/><path d="M22.4461 33.2963C22.4848 29.3053 21.4813 26.0598 20.2049 26.0472C18.9283 26.0347 17.8621 29.2598 17.8235 33.2508C17.7848 37.2418 18.7883 40.4874 20.0647 40.4999C21.3412 40.5125 22.4074 37.2874 22.4461 33.2963Z" fill="white"/></g>
        <g id="logotype" transform="translate(41, 20.5)"></g>
        
      </svg>
    